<?xml version="1.0" encoding="utf-8"?>
<!-- Generator: Adobe Illustrator 29.7.0, SVG Export Plug-In . SVG Version: 9.03 Build 0)  -->
<svg version="1.1" xmlns="http://www.w3.org/2000/svg" xmlns:xlink="http://www.w3.org/1999/xlink" x="0px" y="0px"
	 viewBox="0 0 500 500" style="enable-background:new 0 0 500 500;" xml:space="preserve">
<g>
</g>
<g id="Frame">
	<g>
		<path style="fill:#262D35;" d="M101.5703354,98.3691101h18.5537109c3.4156494,0,6.1845703,2.7689209,6.1845703,6.1845703
			v123.691391c0,3.4156494-2.7689209,6.1845703-6.1845703,6.1845703h-18.5537109
			c-3.4156418,0-6.1845703-2.7689209-6.1845703-6.1845703v-123.691391
			C95.3857651,101.138031,98.1546936,98.3691101,101.5703354,98.3691101z"/>
		<path style="fill:#262D35;" d="M277.2120972,100.8429413h19.7906189c1.366272,0,2.4738464,1.1075668,2.4738464,2.4738235
			v14.8429642c0,1.3662567-1.1075745,2.4738312-2.4738464,2.4738312h-19.7906189
			c-1.366272,0-2.4738159-1.1075745-2.4738159-2.4738312v-14.8429642
			C274.7382812,101.9505081,275.8458252,100.8429413,277.2120972,100.8429413z"/>
		<rect x="279.6859436" y="222.7193146" style="fill:#262D35;" width="14.8429661" height="160.7987976"/>
		<rect x="207.944931" y="284.5650024" style="fill:#262D35;" width="158.3249817" height="14.8429661"/>
		<path style="fill:#262D35;" d="M150.3825,159.3994L112.5738,159.5339L110.0505,160.5791L108.1192,162.5104
				L107.0740,165.0337L107.0740,167.7650L107.7660,169.6991L109.4987,171.8104
				L111.2607,172.8665L113.2534,173.3657L157.2315,173.3994L159.9043,172.8690
				L161.6635,171.8176L163.0427,170.3018L164.0925,167.7872L164.4927,157.6151
				L165.1330,150.3093L166.3059,142.3893L167.9188,134.9208L169.6662,128.7506
				L171.7056,122.9154L174.0168,117.4100L176.5803,112.2292L179.7942,106.6990
				L183.7389,100.9674L187.5073,96.3006L192.0065,91.5243L196.7436,87.2431
				L201.6796,83.4506L206.7751,80.1418L212.5750,77.0269L218.4655,74.4974
				L224.9803,72.3835L231.4553,70.9610L237.8096,70.2179L243.9616,70.1391
				L250.3471,70.7881L255.8180,72.0302L261.2832,74.0561L265.3824,76.2512
				L268.6878,78.6032L271.9126,81.6257L274.3983,84.7183L276.8793,89.0043
				L278.7073,93.8988L279.6685,98.3997L280.1457,105.2843L280.6575,107.2738
				L281.7249,109.0290L283.2557,110.3987L285.1183,111.2651L287.1522,111.5535
				L289.8275,111.0036L292.0887,109.4717L293.5916,107.1910L294.1073,104.5089
				L293.7172,97.8431L292.5517,91.4841L290.6397,85.5569L287.9689,80.0105
				L285.0828,75.6025L281.7306,71.6287L277.5427,67.7592L273.2926,64.6891
				L268.3090,61.8926L262.9135,59.6218L257.2407,57.9191L251.2674,56.7653
				L245.1867,56.1807L238.3333,56.1680L232.0004,56.7269L225.6124,57.8283
				L219.1506,59.4907L212.7764,61.6852L206.4701,64.4280L200.3274,67.6921
				L194.8958,71.1181L189.7190,74.9165L184.6765,79.1933L180.3979,83.3460
				L175.8331,88.4141L171.9907,93.3055L167.9683,99.2057L164.6633,104.8336
				L161.6729,110.7481L158.9845,117.0013L156.6184,123.5916L154.6095,130.4604
				L152.9436,137.7215L151.8097,144.2670L150.8741,152.0912L150.3825,159.3994
				Z"/>
		<path style="fill:#262D35;" d="M252.4738312,143.3997955c3.7107391-24.7382736,65.5564423-24.7382736,69.2671661,0H252.4738312z"
			/>
		<path style="fill:#262D35;stroke:#262D35;stroke-width:8;stroke-linejoin:round;" d="M169.6006012,216.5347443
			l74.2148285-61.8456879h86.5839844l74.2148132,61.8456879H169.6006012z"/>
		<polygon style="fill:none;stroke:#262D35;stroke-width:12;stroke-linejoin:round;" points="194.3388824,222.7193146
			379.875946,222.7193146 342.7685547,383.5181274 231.4462891,383.5181274 		"/>
		<path style="fill:#262D35;" d="M219.0771484,395.8730469h136.0605164c0,11.1322021-12.3691101,17.3167725-24.7382507,17.3167725
			h-86.5839844C231.4462891,413.1898193,219.0771484,407.005249,219.0771484,395.8730469z"/>
		<path style="fill:#262D35;" d="M268.5537109,418.3544617c0,10.2469482,8.3067627,18.5537109,18.5537109,18.5537109
			c10.2469177,0,18.5537109-8.3067627,18.5537109-18.5537109H268.5537109z"/>
	</g>
</g>
</svg>
