<?xml version="1.0" encoding="utf-8"?>
<!-- Generator: Adobe Illustrator 29.7.0, SVG Export Plug-In . SVG Version: 9.03 Build 0)  -->
<svg version="1.1" xmlns="http://www.w3.org/2000/svg" xmlns:xlink="http://www.w3.org/1999/xlink" x="0px" y="0px"
	 viewBox="0 0 500 500" style="enable-background:new 0 0 500 500;" xml:space="preserve">
<g>
</g>
<g id="Frame">
	<g>
		<path style="fill:#262D35;" d="M101.5703354,98.3691101h18.5537109c3.4156494,0,6.1845703,2.7689209,6.1845703,6.1845703
			v123.691391c0,3.4156494-2.7689209,6.1845703-6.1845703,6.1845703h-18.5537109
			c-3.4156418,0-6.1845703-2.7689209-6.1845703-6.1845703v-123.691391
			C95.3857651,101.138031,98.1546936,98.3691101,101.5703354,98.3691101z"/>
		<path style="fill:#262D35;" d="M277.2120972,100.8429413h19.7906189c1.366272,0,2.4738464,1.1075668,2.4738464,2.4738235
			v14.8429642c0,1.3662567-1.1075745,2.4738312-2.4738464,2.4738312h-19.7906189
			c-1.366272,0-2.4738159-1.1075745-2.4738159-2.4738312v-14.8429642
			C274.7382812,101.9505081,275.8458252,100.8429413,277.2120972,100.8429413z"/>
		<rect x="279.6859436" y="222.7193146" style="fill:#262D35;" width="14.8429661" height="160.7987976"/>
		<rect x="207.944931" y="284.5650024" style="fill:#262D35;" width="158.3249817" height="14.8429661"/>
		<path style="fill:none;stroke:#262D35;stroke-width:14;stroke-linecap:round;stroke-linejoin:round;" d="M113.939476,166.3993683
			h43.2919846c0-117.506813,129.8759613-129.875946,129.8759613-61.8456879"/>
		<path style="fill:#262D35;" d="M252.4738312,143.3997955c3.7107391-24.7382736,65.5564423-24.7382736,69.2671661,0H252.4738312z"
			/>
		<path style="fill:#262D35;stroke:#262D35;stroke-width:8;stroke-linejoin:round;" d="M169.6006012,216.5347443
			l74.2148285-61.8456879h86.5839844l74.2148132,61.8456879H169.6006012z"/>
		<polygon style="fill:none;stroke:#262D35;stroke-width:12;stroke-linejoin:round;" points="194.3388824,222.7193146
			379.875946,222.7193146 342.7685547,383.5181274 231.4462891,383.5181274 		"/>
		<path style="fill:#262D35;" d="M219.0771484,395.8730469h136.0605164c0,11.1322021-12.3691101,17.3167725-24.7382507,17.3167725
			h-86.5839844C231.4462891,413.1898193,219.0771484,407.005249,219.0771484,395.8730469z"/>
		<path style="fill:#262D35;" d="M268.5537109,418.3544617c0,10.2469482,8.3067627,18.5537109,18.5537109,18.5537109
			c10.2469177,0,18.5537109-8.3067627,18.5537109-18.5537109H268.5537109z"/>
	</g>
</g>
</svg>
